<svg width="370" height="358" viewBox="0 0 370 358" fill="none" xmlns="http://www.w3.org/2000/svg">
<path d="M150.101 244.338C233 288.416 315.756 294.895 334.943 258.81C354.13 222.725 302.482 157.74 219.583 113.662C136.684 69.5839 53.9279 63.1046 34.741 99.1898C15.5542 135.275 67.2027 200.26 150.101 244.338Z" stroke="url(#paint0_linear_300_57)" stroke-width="18" stroke-linecap="round"/>
<path d="M219.583 244.338C302.481 200.26 354.13 135.275 334.943 99.1898C315.756 63.1046 233 69.5839 150.101 113.662C67.2025 157.74 15.554 222.725 34.7409 258.81C53.9278 294.895 136.684 288.416 219.583 244.338Z" stroke="url(#paint1_linear_300_57)" stroke-width="18" stroke-linecap="round"/>
<path d="M110.842 179C110.842 272.888 143.973 349 184.842 349C225.711 349 258.842 272.888 258.842 179C258.842 85.1116 225.711 9 184.842 9C143.973 9 110.842 85.1116 110.842 179Z" stroke="url(#paint2_linear_300_57)" stroke-width="18" stroke-linecap="round"/>
<path d="M308 131C317.941 131 326 122.941 326 113C326 103.059 317.941 95 308 95C298.059 95 290 103.059 290 113C290 122.941 298.059 131 308 131Z" fill="#2F6B4F"/>
<path d="M61 262C70.9411 262 79 253.941 79 244C79 234.059 70.9411 226 61 226C51.0589 226 43 234.059 43 244C43 253.941 51.0589 262 61 262Z" fill="#5E8F72"/>
<path d="M261.842 341C271.783 341 279.842 332.941 279.842 323C279.842 313.059 271.783 305 261.842 305C251.901 305 243.842 313.059 243.842 323C243.842 332.941 251.901 341 261.842 341Z" fill="#A7C4A0"/>
<path d="M184.842 249C223.502 249 254.842 217.66 254.842 179C254.842 140.34 223.502 109 184.842 109C146.182 109 114.842 140.34 114.842 179C114.842 217.66 146.182 249 184.842 249Z" fill="#F7FAF6" stroke="#2F6B4F" stroke-width="10"/>
<path d="M156.842 173H150.842C147.528 173 144.842 175.686 144.842 179V205C144.842 208.314 147.528 211 150.842 211H156.842C160.156 211 162.842 208.314 162.842 205V179C162.842 175.686 160.156 173 156.842 173Z" fill="#A7C4A0"/>
<path d="M187.842 154H181.842C178.528 154 175.842 156.686 175.842 160V205C175.842 208.314 178.528 211 181.842 211H187.842C191.156 211 193.842 208.314 193.842 205V160C193.842 156.686 191.156 154 187.842 154Z" fill="#5E8F72"/>
<path d="M218.842 133H212.842C209.528 133 206.842 135.686 206.842 139V205C206.842 208.314 209.528 211 212.842 211H218.842C222.156 211 224.842 208.314 224.842 205V139C224.842 135.686 222.156 133 218.842 133Z" fill="#2F6B4F"/>
<path d="M168.842 131H200.842" stroke="#2F6B4F" stroke-width="10" stroke-linecap="round"/>
<path d="M176.842 131V113H192.842V131" stroke="#2F6B4F" stroke-width="10" stroke-linecap="round" stroke-linejoin="round"/>
<path d="M147.842 230H221.842" stroke="#2F6B4F" stroke-width="10" stroke-linecap="round"/>
<defs>
<linearGradient id="paint0_linear_300_57" x1="126.198" y1="-51.5143" x2="243.487" y2="409.514" gradientUnits="userSpaceOnUse">
<stop offset="1" stop-color="#2F6B4F"/>
</linearGradient>
<linearGradient id="paint1_linear_300_57" x1="-39.0566" y1="98.7167" x2="408.741" y2="259.283" gradientUnits="userSpaceOnUse">
<stop offset="1" stop-color="#2F6B4F"/>
</linearGradient>
<linearGradient id="paint2_linear_300_57" x1="360.842" y1="19" x2="8.84204" y2="339" gradientUnits="userSpaceOnUse">
<stop offset="1" stop-color="#2F6B4F"/>
</linearGradient>
</defs>
</svg>
